HIERARCHY
ROOT hip
{
  OFFSET 0.00112043 5.09927 -9.65472
  CHANNELS 6 Xposition Yposition Zposition Zrotation Xrotation Yrotation
  JOINT abdomen
  {
    OFFSET 0 -1.186 -1.5018
    CHANNELS 3 Zrotation Xrotation Yrotation
    JOINT abdomen2
    {
      OFFSET 0 9.964 0.2134
      CHANNELS 3 Zrotation Xrotation Yrotation
      JOINT chest
      {
        OFFSET 0 13.134 -3.2573
        CHANNELS 3 Zrotation Xrotation Yrotation
        JOINT neck
        {
          OFFSET 0 20.686 -1.6905
          CHANNELS 3 Zrotation Xrotation Yrotation
          JOINT head
          {
            OFFSET 0 7.238 -0.1237
            CHANNELS 3 Zrotation Xrotation Yrotation
            End Site
            {
              OFFSET 0 0 0
            }
          }
        }
        JOINT lCollar
        {
          OFFSET 1.7069 20.075 5.0056
          CHANNELS 3 Zrotation Xrotation Yrotation
          JOINT lShldr
          {
            OFFSET 13.6458 -0.047 -4.849
            CHANNELS 3 Zrotation Xrotation Yrotation
            JOINT lForeArm
            {
              OFFSET 28.3255 -0.9759 2.2888
              CHANNELS 3 Zrotation Xrotation Yrotation
              JOINT lHand
              {
                OFFSET 22.1583 -0.53 10.8316
                CHANNELS 3 Zrotation Xrotation Yrotation
                JOINT lThumb1
                {
                  OFFSET 0.786 0.112 2.5817
                  CHANNELS 3 Zrotation Xrotation Yrotation
                  JOINT lThumb2
                  {
                    OFFSET 0.3601 -0.878 4.2331
                    CHANNELS 3 Zrotation Xrotation Yrotation
                    JOINT lThumb2_End
                    {
                      OFFSET 1.8127 -1.216 2.2227
                      CHANNELS 3 Zrotation Xrotation Yrotation
                      End Site
                      {
                        OFFSET 0.0181 -0.0122 0.0222
                      }
                    }
                  }
                }
                JOINT lCarpal1
                {
                  OFFSET 0.9571 1.114 1.7695
                  CHANNELS 3 Zrotation Xrotation Yrotation
                  JOINT lIndex1
                  {
                    OFFSET 4.1246 0.487 4.1451
                    CHANNELS 3 Zrotation Xrotation Yrotation
                    JOINT lIndex2
                    {
                      OFFSET 3.4052 -1.454 2.7682
                      CHANNELS 3 Zrotation Xrotation Yrotation
                      JOINT lIndex2_End
                      {
                        OFFSET 1.4531 -1.795 1.2713
                        CHANNELS 3 Zrotation Xrotation Yrotation
                        End Site
                        {
                          OFFSET 0.0145 -0.0179 0.0127
                        }
                      }
                    }
                  }
                  JOINT lMid1
                  {
                    OFFSET 5.6954 0.21 2.1184
                    CHANNELS 3 Zrotation Xrotation Yrotation
                    JOINT lMid2
                    {
                      OFFSET 3.9766 -1.54 2.3863
                      CHANNELS 3 Zrotation Xrotation Yrotation
                      JOINT lMid2_End
                      {
                        OFFSET 1.4042 -1.926 1.125
                        CHANNELS 3 Zrotation Xrotation Yrotation
                        End Site
                        {
                          OFFSET 0.014 -0.0193 0.0113
                        }
                      }
                    }
                  }
                }
                JOINT lCarpal2
                {
                  OFFSET 2.0956 0.66 -0.3894
                  CHANNELS 3 Zrotation Xrotation Yrotation
                  JOINT lRing1
                  {
                    OFFSET 5.0395 -0.09 2.4971
                    CHANNELS 3 Zrotation Xrotation Yrotation
                    JOINT lRing2
                    {
                      OFFSET 3.7921 -1.552 1.4806
                      CHANNELS 3 Zrotation Xrotation Yrotation
                      JOINT lRing2_End
                      {
                        OFFSET 1.4655 -1.808 0.9609
                        CHANNELS 3 Zrotation Xrotation Yrotation
                        End Site
                        {
                          OFFSET 0.0147 -0.0181 0.0096
                        }
                      }
                    }
                  }
                  JOINT lPinky1
                  {
                    OFFSET 4.9141 -1.269 0.3591
                    CHANNELS 3 Zrotation Xrotation Yrotation
                    JOINT lPinky2
                    {
                      OFFSET 3.1477 -1.685 0.8462
                      CHANNELS 3 Zrotation Xrotation Yrotation
                      JOINT lPinky2_End
                      {
                        OFFSET 0.8055 -1.585 0.7955
                        CHANNELS 3 Zrotation Xrotation Yrotation
                        End Site
                        {
                          OFFSET 0.0081 -0.0158 0.008
                        }
                      }
                    }
                  }
                }
              }
            }
          }
        }
        JOINT rCollar
        {
          OFFSET -1.7069 20.075 5.0056
          CHANNELS 3 Zrotation Xrotation Yrotation
          JOINT rShldr
          {
            OFFSET -13.6458 -0.047 -4.849
            CHANNELS 3 Zrotation Xrotation Yrotation
            JOINT rForeArm
            {
              OFFSET -28.3255 -0.9759 2.2888
              CHANNELS 3 Zrotation Xrotation Yrotation
              JOINT rHand
              {
                OFFSET -22.1583 -0.53 10.8316
                CHANNELS 3 Zrotation Xrotation Yrotation
                JOINT rThumb1
                {
                  OFFSET -0.786 0.112 2.5817
                  CHANNELS 3 Zrotation Xrotation Yrotation
                  JOINT rThumb2
                  {
                    OFFSET -0.3601 -0.878 4.2331
                    CHANNELS 3 Zrotation Xrotation Yrotation
                    JOINT rThumb2_End
                    {
                      OFFSET -1.8127 -1.216 2.2227
                      CHANNELS 3 Zrotation Xrotation Yrotation
                      End Site
                      {
                        OFFSET -0.0181 -0.0122 0.0222
                      }
                    }
                  }
                }
                JOINT rCarpal1
                {
                  OFFSET -0.9571 1.114 1.7695
                  CHANNELS 3 Zrotation Xrotation Yrotation
                  JOINT rIndex1
                  {
                    OFFSET -4.1246 0.487 4.1451
                    CHANNELS 3 Zrotation Xrotation Yrotation
                    JOINT rIndex2
                    {
                      OFFSET -3.4052 -1.454 2.7682
                      CHANNELS 3 Zrotation Xrotation Yrotation
                      JOINT rIndex2_End
                      {
                        OFFSET -1.4531 -1.795 1.2713
                        CHANNELS 3 Zrotation Xrotation Yrotation
                        End Site
                        {
                          OFFSET -0.0145 -0.018 0.0127
                        }
                      }
                    }
                  }
                  JOINT rMid1
                  {
                    OFFSET -5.6954 0.21 2.1184
                    CHANNELS 3 Zrotation Xrotation Yrotation
                    JOINT rMid2
                    {
                      OFFSET -3.9766 -1.54 2.3863
                      CHANNELS 3 Zrotation Xrotation Yrotation
                      JOINT rMid2_End
                      {
                        OFFSET -1.4042 -1.926 1.125
                        CHANNELS 3 Zrotation Xrotation Yrotation
                        End Site
                        {
                          OFFSET -0.014 -0.0193 0.0113
                        }
                      }
                    }
                  }
                }
                JOINT rCarpal2
                {
                  OFFSET -2.0956 0.66 -0.3894
                  CHANNELS 3 Zrotation Xrotation Yrotation
                  JOINT rRing1
                  {
                    OFFSET -5.0395 -0.09 2.4971
                    CHANNELS 3 Zrotation Xrotation Yrotation
                    JOINT rRing2
                    {
                      OFFSET -3.7921 -1.552 1.4806
                      CHANNELS 3 Zrotation Xrotation Yrotation
                      JOINT rRing2_End
                      {
                        OFFSET -1.4655 -1.808 0.9609
                        CHANNELS 3 Zrotation Xrotation Yrotation
                        End Site
                        {
                          OFFSET -0.0147 -0.0181 0.0096
                        }
                      }
                    }
                  }
                  JOINT rPinky1
                  {
                    OFFSET -4.9141 -1.269 0.3592
                    CHANNELS 3 Zrotation Xrotation Yrotation
                    JOINT rPinky2
                    {
                      OFFSET -3.1477 -1.685 0.8462
                      CHANNELS 3 Zrotation Xrotation Yrotation
                      JOINT rPinky2_End
                      {
                        OFFSET -0.8055 -1.585 0.7955
                        CHANNELS 3 Zrotation Xrotation Yrotation
                        End Site
                        {
                          OFFSET -0.0081 -0.0158 0.008
                        }
                      }
                    }
                  }
                }
              }
            }
          }
        }
      }
    }
  }
  JOINT lThigh
  {
    OFFSET 8.367 -8.2066 0.5982
    CHANNELS 3 Zrotation Xrotation Yrotation
    JOINT lShin
    {
      OFFSET 2.1923 -43.463 -0.4932
      CHANNELS 3 Zrotation Xrotation Yrotation
      JOINT lFoot
      {
        OFFSET 0.7333 -45.8593 -2.6451
        CHANNELS 3 Zrotation Xrotation Yrotation
        End Site
        {
          OFFSET 2.6618 -4.2699 12.3931
        }
      }
    }
  }
  JOINT rThigh
  {
    OFFSET -8.367 -8.2066 0.5982
    CHANNELS 3 Zrotation Xrotation Yrotation
    JOINT rShin
    {
      OFFSET -2.1923 -43.463 -0.4931
      CHANNELS 3 Zrotation Xrotation Yrotation
      JOINT rFoot
      {
        OFFSET -0.7333 -45.8593 -2.6451
        CHANNELS 3 Zrotation Xrotation Yrotation
        End Site
        {
          OFFSET -2.6618 -4.2699 12.3931
        }
      }
    }
  }
}
MOTION
Frames:	5
Frame Time:	0.0333333
0 91.7903 2.51682 0 0 -0 0 0 -0 0 0 -0 0 0 -0 0 0 -0 0 0 -0 0 0 -0 1.66051 0.0835086 5.75766 -0.0175111 0.895433 15.7816 7.95139e-016 -1.98785e-016 -0 5.46658e-016 -3.97569e-016 -0 5.96354e-016 0 -0 3.97569e-016 1.98785e-016 9.54166e-015 1.49089e-016 -3.97569e-016 -0 6.4605e-016 0 3.18055e-015 5.96354e-016 0 3.18055e-015 8.94531e-016 -1.98785e-016 6.36111e-015 6.4605e-016 0 3.18055e-015 5.96354e-016 0 3.18055e-015 8.94531e-016 -1.98785e-016 6.36111e-015 1.49089e-016 -3.97569e-016 -0 6.4605e-016 0 3.18055e-015 5.96354e-016 0 3.18055e-015 8.94531e-016 -1.98785e-016 6.36111e-015 6.4605e-016 0 3.18055e-015 5.96354e-016 0 3.18055e-015 8.94531e-016 -1.98785e-016 6.36111e-015 0 0 -0 -1.4496 0.0636048 -5.0245 -1.74811 1.20616 -16.8394 -1.19271e-015 1.98785e-016 -3.18055e-015 -3.97569e-016 1.98785e-016 -3.18055e-015 -2.98177e-016 1.98785e-016 -3.18055e-015 -2.98177e-016 3.97569e-016 -0 4.96962e-016 0 -6.36111e-015 -9.93923e-017 3.97569e-016 -0 -8.94531e-016 5.96354e-016 -0 -3.97569e-016 3.97569e-016 -0 -9.93923e-017 3.97569e-016 -0 -8.94531e-016 5.96354e-016 -0 -3.97569e-016 3.97569e-016 -0 4.96962e-016 0 -6.36111e-015 -9.93923e-017 3.97569e-016 -0 -8.94531e-016 5.96354e-016 -0 -3.97569e-016 3.97569e-016 -0 -9.93923e-017 3.97569e-016 -0 -8.94531e-016 5.96354e-016 -0 -3.97569e-016 3.97569e-016 -0 -4.66111 -0.998717 0.12318 0.00986924 1.54847 0.176523 4.65186 -0.572283 -0.254274 4.66111 -0.998765 -0.123176 -0.00986867 1.54869 -0.176537 -4.65186 -0.572453 0.25427 
0.532639 18.4553 42.357 -8.60975 36.9655 -165.867 -0.357814 16.1195 -0.0184901 -0.758152 32.2386 0.0779083 -0.75815 32.2386 0.0779029 -2.47238e-005 16.639 2.97982e-006 -9.37416e-007 11.4347 1.8678e-006 14.7144 2.95821 -23.0309 -56.3769 5.87794 -27.9206 -7.0829 2.49931 17.1599 -6.86361 -11.5863 -24.1324 -2.38542e-015 -6.36111e-015 1.59028e-015 -3.97569e-015 -3.18055e-015 3.18055e-015 -1.59028e-015 -3.18055e-015 3.18055e-015 -1.59028e-015 -3.18055e-015 -0 -6.36111e-015 -3.18055e-015 6.36111e-015 -2.38542e-015 0 1.59028e-015 -2.38542e-015 0 4.77083e-015 -6.36111e-015 -3.18055e-015 6.36111e-015 -2.38542e-015 0 1.59028e-015 -2.38542e-015 0 4.77083e-015 -1.59028e-015 -3.18055e-015 -0 -6.36111e-015 -3.18055e-015 6.36111e-015 -2.38542e-015 0 1.59028e-015 -2.38542e-015 0 4.77083e-015 -6.36111e-015 -3.18055e-015 6.36111e-015 -2.38542e-015 0 1.59028e-015 -2.38542e-015 0 4.77083e-015 -13.5849 4.33087 23.9946 55.7593 5.53361 28.1107 4.90927 2.72284 -18.3918 8.19073 -13.7402 24.8561 0 0 -3.97569e-016 3.97569e-016 -3.18055e-015 -1.59028e-015 -1.53397e-006 -4.96132e-006 3.7021e-006 -3.97569e-016 0 -3.97569e-016 -4.37326e-015 -9.54166e-015 2.38542e-015 -3.57812e-015 -1.27222e-014 -7.95139e-015 -1.53397e-006 -4.96132e-006 3.7021e-006 -4.37326e-015 -9.54166e-015 2.38542e-015 -3.57812e-015 -1.27222e-014 -7.95139e-015 -1.53397e-006 -4.96132e-006 3.7021e-006 -3.97569e-016 0 -3.97569e-016 -4.37326e-015 -9.54166e-015 2.38542e-015 -3.57812e-015 -1.27222e-014 -7.95139e-015 -1.53397e-006 -4.96132e-006 3.7021e-006 -4.37326e-015 -9.54166e-015 2.38542e-015 -3.57812e-015 -1.27222e-014 -7.95139e-015 -1.53397e-006 -4.96132e-006 3.7021e-006 49.8588 -37.5937 90.5569 5.74722 37.4449 -60.5757 8.62863 39.4051 39.2466 -49.8891 -37.5893 -90.5884 -5.77701 37.4432 60.6007 -8.64353 39.4112 -39.2578 
-0.833846 22.5279 39.612 -1.24734e-014 37.8714 -180 -0.343774 14.9419 0.00169978 -0.727366 29.8835 0.105825 -0.727366 29.8835 0.105825 -3.28325e-005 14.3587 8.06955e-006 3.19459e-007 9.84482 9.27386e-008 13.2393 4.0727 -21.4966 -53.169 5.67192 -25.9241 -6.666 2.40503 17.0764 -6.80034 -9.49942 -21.1141 -5.96354e-015 -9.54166e-015 -3.97569e-016 6.04161e-007 -2.56071e-006 -1.91149e-006 7.95139e-016 -9.54166e-015 7.95139e-016 -5.1684e-015 -3.18055e-015 -1.59028e-015 -5.96354e-015 0 3.18055e-015 6.04161e-007 -2.56071e-006 -1.91149e-006 1.19271e-015 0 -4.77083e-015 -5.96354e-015 0 3.18055e-015 6.04161e-007 -2.56071e-006 -1.91149e-006 1.19271e-015 0 -4.77083e-015 -5.1684e-015 -3.18055e-015 -1.59028e-015 -5.96354e-015 0 3.18055e-015 6.04161e-007 -2.56071e-006 -1.91149e-006 1.19271e-015 0 -4.77083e-015 -5.96354e-015 0 3.18055e-015 6.04161e-007 -2.56071e-006 -1.91149e-006 1.19271e-015 0 -4.77083e-015 -12.2453 5.26486 22.3032 52.5841 5.33352 26.1478 4.51625 2.63363 -18.2985 7.85475 -11.41 21.7 -5.56597e-015 6.36111e-015 -3.97569e-015 3.97569e-016 0 -3.18055e-015 -1.19271e-015 0 -3.18055e-015 -4.77083e-015 6.36111e-015 -5.1684e-015 -1.19271e-015 0 1.98785e-015 -3.97569e-015 3.18055e-015 -0 3.57812e-015 3.18055e-015 3.97569e-015 -1.19271e-015 0 1.98785e-015 -3.97569e-015 3.18055e-015 -0 3.57812e-015 3.18055e-015 3.97569e-015 -4.77083e-015 6.36111e-015 -5.1684e-015 -1.19271e-015 0 1.98785e-015 -3.97569e-015 3.18055e-015 -0 3.57812e-015 3.18055e-015 3.97569e-015 -1.19271e-015 0 1.98785e-015 -3.97569e-015 3.18055e-015 -0 3.57812e-015 3.18055e-015 3.97569e-015 45.7694 -38.7324 86.0724 3.79975 39.4792 -56.2304 10.8909 37.3127 35.0952 -45.797 -38.7312 -86.1028 -3.82653 39.479 56.253 -10.9043 37.3184 -35.1048 
-0.833746 22.5238 39.2425 -1.29115e-014 40.0337 -180 -0.344146 14.7253 0.00215406 -0.72701 29.4502 0.105003 -0.727009 29.4502 0.105004 -2.15641e-005 13.1204 2.87433e-006 3.44194e-008 8.9762 -1.79819e-007 12.7211 5.26382 -21.3179 -53.169 5.67191 -25.9241 -6.666 2.40505 17.0764 -7.39196 -7.97078 -19.656 -7.95139e-016 3.18055e-015 1.98785e-015 -6.02591e-007 2.5595e-006 1.91336e-006 3.57812e-015 6.36111e-015 -0 -7.95139e-016 3.18055e-015 1.98785e-015 -3.18055e-015 0 5.56597e-015 -6.02591e-007 2.5595e-006 1.91336e-006 1.98785e-015 6.36111e-015 7.95139e-016 -3.18055e-015 0 5.56597e-015 -6.02591e-007 2.5595e-006 1.91336e-006 1.98785e-015 6.36111e-015 7.95139e-016 -7.95139e-016 3.18055e-015 1.98785e-015 -3.18055e-015 0 5.56597e-015 -6.02591e-007 2.5595e-006 1.91336e-006 1.98785e-015 6.36111e-015 7.95139e-016 -3.18055e-015 0 5.56597e-015 -6.02591e-007 2.5595e-006 1.91336e-006 1.98785e-015 6.36111e-015 7.95139e-016 -11.8241 6.3457 22.036 52.5841 5.33352 26.1479 4.51624 2.63363 -18.2986 8.31776 -9.71921 20.1865 1.98785e-015 -1.27222e-014 -1.98785e-015 -5.38133e-007 -2.64782e-006 1.82268e-006 1.59028e-015 3.18055e-015 -2.38542e-015 1.59028e-015 -6.36111e-015 -1.19271e-015 2.78299e-015 -6.36111e-015 -1.59028e-015 -5.38133e-007 -2.64782e-006 1.82268e-006 7.95139e-016 -1.27222e-014 -3.18055e-015 2.78299e-015 -6.36111e-015 -1.59028e-015 -5.38133e-007 -2.64782e-006 1.82268e-006 7.95139e-016 -1.27222e-014 -3.18055e-015 1.59028e-015 -6.36111e-015 -1.19271e-015 2.78299e-015 -6.36111e-015 -1.59028e-015 -5.38133e-007 -2.64782e-006 1.82268e-006 7.95139e-016 -1.27222e-014 -3.18055e-015 2.78299e-015 -6.36111e-015 -1.59028e-015 -5.38133e-007 -2.64782e-006 1.82268e-006 7.95139e-016 -1.27222e-014 -3.18055e-015 45.6382 -36.9046 85.388 4.37335 40.7735 -56.5421 11.9278 36.6591 34.1129 -45.6628 -36.9033 -85.4153 -4.39838 40.773 56.5628 -11.9403 36.6644 -34.1219 
-0.833639 22.5127 38.8697 -1.33794e-014 42.2016 -180 -0.344533 14.5086 0.00259297 -0.726701 29.0169 0.104167 -0.726701 29.0169 0.104167 -3.30437e-006 11.8759 5.28945e-007 -8.0865e-008 8.10552 -9.20618e-008 12.1976 6.4544 -21.1279 -53.169 5.67189 -25.9241 -6.66602 2.40504 17.0764 -8.02238 -6.4533 -18.1827 -1.64509e-006 6.41611e-007 4.47354e-006 -3.97569e-016 3.18055e-015 -1.98785e-015 -6.01667e-007 2.55758e-006 1.91597e-006 -3.97569e-015 -3.18055e-015 -2.38542e-015 -1.64509e-006 6.41611e-007 4.47354e-006 -1.59028e-015 -3.18055e-015 -2.78299e-015 -6.01667e-007 2.55758e-006 1.91597e-006 -1.64509e-006 6.41611e-007 4.47354e-006 -1.59028e-015 -3.18055e-015 -2.78299e-015 -6.01667e-007 2.55758e-006 1.91597e-006 -3.97569e-015 -3.18055e-015 -2.38542e-015 -1.64509e-006 6.41611e-007 4.47354e-006 -1.59028e-015 -3.18055e-015 -2.78299e-015 -6.01667e-007 2.55758e-006 1.91597e-006 -1.64509e-006 6.41611e-007 4.47354e-006 -1.59028e-015 -3.18055e-015 -2.78299e-015 -6.01667e-007 2.55758e-006 1.91597e-006 -11.3966 7.42537 21.7601 52.5841 5.33351 26.1478 4.51624 2.63365 -18.2985 8.82523 -8.0358 18.6612 5.36653e-007 2.64821e-006 -1.8223e-006 5.36653e-007 2.64821e-006 -1.8223e-006 1.98785e-015 3.18055e-014 1.59028e-015 -1.59028e-015 0 -7.55382e-015 5.36653e-007 2.64821e-006 -1.8223e-006 5.36653e-007 2.64821e-006 -1.8223e-006 3.97569e-015 2.54444e-014 -2.38542e-015 5.36653e-007 2.64821e-006 -1.8223e-006 5.36653e-007 2.64821e-006 -1.8223e-006 3.97569e-015 2.54444e-014 -2.38542e-015 -1.59028e-015 0 -7.55382e-015 5.36653e-007 2.64821e-006 -1.8223e-006 5.36653e-007 2.64821e-006 -1.8223e-006 3.97569e-015 2.54444e-014 -2.38542e-015 5.36653e-007 2.64821e-006 -1.8223e-006 5.36653e-007 2.64821e-006 -1.8223e-006 3.97569e-015 2.54444e-014 -2.38542e-015 45.5421 -35.0704 84.7248 4.97306 42.0662 -56.8812 12.9381 35.9901 33.1547 -45.5638 -35.069 -84.7491 -4.99618 42.0652 56.8999 -12.9497 35.995 -33.163 
